<svg width="140" height="140" viewBox="0 0 140 140" fill="none" xmlns="http://www.w3.org/2000/svg">
<path d="M69.8529 0C31.2728 0 0 31.3387 0 70C0 108.661 31.2728 140 69.8529 140C108.433 140 139.706 108.661 139.706 70C139.714 31.3387 108.433 0 69.8529 0ZM101.893 100.971C100.642 103.036 97.9559 103.679 95.9038 102.425C79.4958 92.3776 58.8503 90.1122 34.5344 95.6795C32.1904 96.2145 29.8547 94.7432 29.3209 92.4027C28.787 90.0537 30.2468 87.7131 32.5991 87.1782C59.209 81.0843 82.0317 83.7091 100.45 94.9773C102.502 96.2228 103.144 98.9145 101.893 100.971ZM110.443 81.9035C108.867 84.4698 105.513 85.2806 102.953 83.7007C84.1838 72.1399 55.5553 68.7879 33.3415 75.5421C30.4637 76.4115 27.419 74.7898 26.5431 71.9059C25.6756 69.022 27.3022 65.9792 30.1717 65.1015C55.547 57.3859 87.0867 61.1225 108.642 74.4053C111.211 75.9852 112.012 79.3456 110.443 81.9035ZM111.177 62.0587C88.6633 48.6589 51.518 47.4301 30.0216 53.967C26.5681 55.0203 22.9228 53.0642 21.8718 49.6035C20.8291 46.1428 22.7727 42.4898 26.2261 41.4366C50.9007 33.93 91.9249 35.3845 117.842 50.7989C120.945 52.6463 121.963 56.6671 120.128 59.7683C118.284 62.8779 114.272 63.9061 111.177 62.0587Z" fill="#1ED760"/>
</svg>
